# xmcd
#
# Track frame offsets:
#	150
#	5527
#	34420
#	54972
#
# Disc length: 1046 seconds
#
# Revision: 1
# Processed by: cddbd v1.5PL3 Copyright (c) Steve Scherf et al.
# Submitted via: CDex 1.50Beta5
#
DISCID=29041404
DTITLE=ヴィドール - if...レボトミン(Y LV25 25)475mg
DYEAR=1900
DGENRE=Rock
TTITLE0=人形
TTITLE1=ヒロイン
TTITLE2=マミー×ダでぃ
TTITLE3=偽リノ錠剤
EXTD=
EXTT0=
EXTT1=
EXTT2=
EXTT3=
PLAYORDER=
